<svg width="25" height="25" viewBox="0 0 25 25" fill="none" xmlns="http://www.w3.org/2000/svg">
<path d="M20.9202 13.3674V19.3614C20.9032 20.0584 20.5652 20.4434 19.8672 20.5014C19.0662 20.5674 18.2612 20.6094 17.4572 20.6574C15.8372 20.7574 14.2162 20.8554 12.5962 20.9514C11.1612 21.0364 9.72624 21.1114 8.29324 21.2084C7.65924 21.2494 7.16024 21.0494 6.80924 20.5054C6.70524 20.3444 6.57224 20.1994 6.45424 20.0454C5.85424 19.2714 5.25924 18.4954 4.65624 17.7254C4.25159 17.2281 4.0365 16.6034 4.04924 15.9624C4.06924 12.5524 4.05724 9.14439 4.05924 5.73539C4.05924 5.60639 4.06924 5.47839 4.08924 5.35139C4.18124 4.85139 4.49124 4.54139 4.99724 4.49339C5.82524 4.41539 6.66624 4.36139 7.50124 4.29839L11.4912 4.00439C12.7692 3.91139 14.0472 3.82239 15.3252 3.72139C15.9658 3.66925 16.6028 3.85827 17.1112 4.25139C18.2372 5.06839 19.3812 5.85839 20.5232 6.65539C20.6554 6.74019 20.7625 6.85882 20.8334 6.99897C20.9042 7.13912 20.9363 7.29567 20.9262 7.45239C20.9152 9.42339 20.9202 11.3954 20.9202 13.3674ZM19.7582 13.4444V8.34039C19.7582 7.84839 19.5852 7.67839 19.1082 7.70639L14.9582 7.94239L9.86824 8.24039C9.27024 8.27539 8.67224 8.31039 8.07424 8.35039C7.75724 8.37239 7.61324 8.51239 7.56624 8.82339C7.55424 8.91339 7.54924 9.00339 7.55124 9.09339V18.9534C7.55124 19.7204 7.75524 19.9124 8.52524 19.8674C9.29524 19.8224 10.0642 19.7724 10.8422 19.7274L19.0812 19.2544C19.5232 19.2294 19.7242 19.0344 19.7592 18.5954C19.7652 18.5184 19.7592 18.4414 19.7592 18.3594L19.7582 13.4444ZM18.5112 6.52839L18.5382 6.47739C18.4777 6.40334 18.4108 6.33474 18.3382 6.27239C17.7922 5.87339 17.2402 5.48239 16.6952 5.08939C16.3382 4.81639 15.8952 4.67939 15.4462 4.70439C14.5522 4.75839 13.6602 4.82939 12.7662 4.89439L7.02224 5.31139C6.61024 5.34139 6.19324 5.37339 5.79124 5.42139C5.7462 5.43024 5.70382 5.44938 5.66739 5.4773C5.63096 5.50523 5.60148 5.5412 5.58124 5.58239C5.56424 5.63139 5.64524 5.74139 5.70824 5.79239C6.15824 6.15539 6.61624 6.51239 7.07024 6.87039C7.31524 7.07439 7.62824 7.18039 7.94624 7.16739C8.10124 7.16039 8.25624 7.16739 8.41024 7.15339L12.5782 6.89739L18.1162 6.57139C18.2482 6.55639 18.3792 6.54139 18.5112 6.52839Z" fill="white"/>
<path d="M16.0153 15.1513V10.4913C15.7633 10.4613 15.5223 10.4263 15.2793 10.4083C15.1463 10.3983 15.1153 10.3383 15.1293 10.2213C15.1427 10.0945 15.1986 9.9761 15.2879 9.88528C15.3773 9.79446 15.4948 9.73664 15.6213 9.72127C16.4243 9.66127 17.2273 9.62027 18.0263 9.57227C18.1453 9.96927 18.0263 10.1643 17.6463 10.2393C17.2273 10.3263 17.2273 10.3263 17.2273 10.7513V17.5963C17.2273 17.7553 17.1853 17.8523 17.0353 17.8993C16.7709 17.998 16.5015 18.0832 16.2283 18.1543C15.7893 18.2463 15.4003 18.1243 15.1393 17.7453C14.776 17.2216 14.4209 16.6922 14.0743 16.1573C13.2703 14.9133 12.4763 13.6643 11.6773 12.4173C11.6613 12.3913 11.6393 12.3663 11.5943 12.3043C11.5843 12.3903 11.5753 12.4393 11.5753 12.4903V17.1503C11.5753 17.2873 11.6193 17.3433 11.7513 17.3683C12.0473 17.4263 12.3423 17.4973 12.6313 17.5623C12.6262 17.7074 12.5687 17.8457 12.4694 17.9516C12.3701 18.0575 12.2358 18.1238 12.0913 18.1383C11.8489 18.1708 11.6049 18.1908 11.3603 18.1983C10.7683 18.2343 10.1763 18.2623 9.58533 18.3043C9.41233 18.3163 9.37733 18.2443 9.40733 18.1033C9.41596 18.0185 9.45103 17.9387 9.50756 17.8749C9.56409 17.8112 9.63923 17.7669 9.72233 17.7483C9.90833 17.7033 10.0923 17.6443 10.2763 17.5923V10.9023L9.44733 10.8283C9.41965 10.742 9.41216 10.6504 9.42543 10.5608C9.4387 10.4711 9.47238 10.3857 9.52388 10.3111C9.57538 10.2365 9.64331 10.1748 9.72245 10.1306C9.80159 10.0864 9.88982 10.061 9.98033 10.0563C10.7053 9.99827 11.4353 9.97627 12.1583 9.89427C12.4673 9.86027 12.6113 9.97427 12.7663 10.2133C13.7893 11.7893 14.8263 13.3593 15.8593 14.9303L16.0153 15.1513Z" fill="white"/>
</svg>
