<svg width="25" height="25" viewBox="0 0 25 25" fill="none" xmlns="http://www.w3.org/2000/svg">
<path d="M12.4883 1.96289C6.68984 1.96289 1.98828 6.78633 1.98828 12.7301C1.98828 17.4879 4.99766 21.5191 9.16953 22.9441C9.22805 22.9569 9.28778 22.9631 9.34766 22.9629C9.73672 22.9629 9.88672 22.677 9.88672 22.4285C9.88672 22.1707 9.87734 21.4957 9.87266 20.5957C9.52533 20.6771 9.17001 20.7196 8.81328 20.7223C6.79297 20.7223 6.33359 19.152 6.33359 19.152C5.85547 17.9098 5.16641 17.577 5.16641 17.577C4.25234 16.9348 5.16172 16.916 5.23203 16.916H5.23672C6.29141 17.0098 6.84453 18.0316 6.84453 18.0316C7.36953 18.9504 8.07266 19.2082 8.70078 19.2082C9.11611 19.1999 9.52502 19.1041 9.90078 18.927C9.99453 18.2332 10.2664 17.7598 10.5664 17.4879C8.23672 17.216 5.78516 16.2926 5.78516 12.1676C5.78516 10.991 6.19297 10.0301 6.86328 9.28008C6.75547 9.0082 6.39453 7.91133 6.96641 6.43008C7.04312 6.41172 7.12196 6.40384 7.20078 6.40664C7.58047 6.40664 8.43828 6.55195 9.85391 7.53633C11.574 7.05507 13.3932 7.05507 15.1133 7.53633C16.5289 6.55195 17.3867 6.40664 17.7664 6.40664C17.8452 6.40384 17.9241 6.41172 18.0008 6.43008C18.5727 7.91133 18.2117 9.0082 18.1039 9.28008C18.7742 10.0348 19.182 10.9957 19.182 12.1676C19.182 16.302 16.7258 17.2113 14.3867 17.4785C14.7617 17.8113 15.0992 18.4676 15.0992 19.4707C15.0992 20.9098 15.0852 22.0723 15.0852 22.4238C15.0852 22.677 15.2305 22.9629 15.6195 22.9629C15.6825 22.9632 15.7454 22.9569 15.807 22.9441C19.9836 21.5191 22.9883 17.4832 22.9883 12.7301C22.9883 6.78633 18.2867 1.96289 12.4883 1.96289Z" fill="white"/>
</svg>
